HIERARCHY
ROOT Hips
{
  OFFSET 55.5834 85.8171 5.98911
  CHANNELS 6 Xposition Yposition Zposition Zrotation Xrotation Yrotation
  JOINT spine
  {
    OFFSET 0 6.3926 0.367606
    CHANNELS 3 Zrotation Xrotation Yrotation
    JOINT spine1
    {
      OFFSET 0 9.17611 0
      CHANNELS 3 Zrotation Xrotation Yrotation
      JOINT spine2
      {
        OFFSET 0 8.79238 0
        CHANNELS 3 Zrotation Xrotation Yrotation
        JOINT Neck
        {
          OFFSET 0 22.5737 1.07624
          CHANNELS 3 Zrotation Xrotation Yrotation
          JOINT Head
          {
            OFFSET 0 6.82011 0
            CHANNELS 3 Zrotation Xrotation Yrotation
            End Site
            {
              OFFSET 0 16.5085 -5.44427
            }
          }
        }
        JOINT RightShoulder
        {
          OFFSET -3.70221 9.49509 -0.515508
          CHANNELS 3 Zrotation Xrotation Yrotation
          JOINT RightArm
          {
            OFFSET 0 12.4537 0
            CHANNELS 3 Zrotation Xrotation Yrotation
            JOINT RightArmRoll
            {
              OFFSET 0 6.28686 0
              CHANNELS 3 Zrotation Xrotation Yrotation
              JOINT RightForeArm
              {
                OFFSET 0 18.3114 0
                CHANNELS 3 Zrotation Xrotation Yrotation
                JOINT RightForeArmRoll
                {
                  OFFSET 0 7.05482 0
                  CHANNELS 3 Zrotation Xrotation Yrotation
                  JOINT RightHand
                  {
                    OFFSET 0 14.1575 0
                    CHANNELS 3 Zrotation Xrotation Yrotation
                    End Site
                    {
                      OFFSET 0 0 0
                    }
                  }
                }
              }
            }
          }
        }
        JOINT LeftShoulder
        {
          OFFSET 3.70221 9.49509 -0.515508
          CHANNELS 3 Zrotation Xrotation Yrotation
          JOINT LeftArm
          {
            OFFSET 0 12.4537 0
            CHANNELS 3 Zrotation Xrotation Yrotation
            JOINT LeftArmRoll
            {
              OFFSET 0 6.28686 0
              CHANNELS 3 Zrotation Xrotation Yrotation
              JOINT LeftForeArm
              {
                OFFSET 0 18.3114 0
                CHANNELS 3 Zrotation Xrotation Yrotation
                JOINT LeftForeArmRoll
                {
                  OFFSET 0 7.05483 0
                  CHANNELS 3 Zrotation Xrotation Yrotation
                  JOINT LeftHand
                  {
                    OFFSET 0 14.1575 0
                    CHANNELS 3 Zrotation Xrotation Yrotation
                    End Site
                    {
                      OFFSET 0 0 0
                    }
                  }
                }
              }
            }
          }
        }
      }
    }
  }
  JOINT RightUpLeg
  {
    OFFSET -5.66616 -1.03903 -0.87161
    CHANNELS 3 Zrotation Xrotation Yrotation
    JOINT RightUpLegRoll
    {
      OFFSET 0 16.6005 0
      CHANNELS 3 Zrotation Xrotation Yrotation
      JOINT RightLeg
      {
        OFFSET 0 -20.5572 0
        CHANNELS 3 Zrotation Xrotation Yrotation
        JOINT RightLegRoll
        {
          OFFSET 0 20.6244 0
          CHANNELS 3 Zrotation Xrotation Yrotation
          JOINT RightFoot
          {
            OFFSET 0 17.1664 0
            CHANNELS 3 Zrotation Xrotation Yrotation
            JOINT RightToeBase
            {
              OFFSET 0 14.3502 0
              CHANNELS 3 Zrotation Xrotation Yrotation
              End Site
              {
                OFFSET 0.00608252 6.9497 -0.801061
              }
            }
          }
        }
      }
    }
  }
  JOINT LeftUpLeg
  {
    OFFSET 5.66616 -1.03903 -0.87161
    CHANNELS 3 Zrotation Xrotation Yrotation
    JOINT LeftUpLegRoll
    {
      OFFSET 0 16.6006 0
      CHANNELS 3 Zrotation Xrotation Yrotation
      JOINT LeftLeg
      {
        OFFSET 0 20.5571 0
        CHANNELS 3 Zrotation Xrotation Yrotation
        JOINT LeftLegRoll
        {
          OFFSET 0 20.8151 0
          CHANNELS 3 Zrotation Xrotation Yrotation
          JOINT LeftFoot
          {
            OFFSET 0 16.9757 0
            CHANNELS 3 Zrotation Xrotation Yrotation
            JOINT LeftToeBase
            {
              OFFSET 0 14.3502 0
              CHANNELS 3 Zrotation Xrotation Yrotation
              End Site
              {
                OFFSET -0.0272592 6.94971 -0.801061
              }
            }
          }
        }
      }
    }
  }
}
MOTION
Frames: 12
Frame Time: 0.00208333
55.131 85.6502 5.84612 -3.31063 -7.5242 -1.52715 0.261802 -0.68594 -0.159307 0.528487 2.63009 -0.351463 0.533275 4.27513 -0.361233 1.0163 10.1314 1.31931 -4.97942 10.2524 1.64077 53.8869 3.31869 2.91592 121.186 24.8987 -64.3117 5.04413e-007 1.06294e-007 -4.97288e-006 -152.092 66.2864 129.736 7.61644e-007 8.30136e-006 -3 8.02887 -4.95145 0.697702 -48.3182 -1.36006 -0.401725 -119.202 27.7633 36.5215 1.5918e-006 2.45892e-006 4.98386e-006 166.562 76.1593 -154.897 5.40276e-006 -6.45906e-006 3 -8.02898 -4.95146 -0.697696 178.027 -5.02958 0.0121311 180 7.01522e-015 178.821 177.124 5.61161 179.747 2.55378e-006 -1.84189e-007 0.0437941 -18.3987 67.5901 19.2189 8.13649 25.2326 -3.48773 -170.647 -4.38131 -2.72411 4.54188e-006 -4.6773e-006 -1.0217 -1.40847 -10.8625 0.585935 1.26356e-006 7.58204e-007 -0.0689305 18.3067 70.5604 -21.7387 -8.13656 25.2336 3.48643 
55.1239 85.669 5.84349 -3.31569 -7.49393 -1.52039 0.261769 -0.69472 -0.157099 0.527977 2.61254 -0.347356 0.532715 4.25758 -0.357127 1.06634 10.2291 1.30671 -5.02193 10.1005 1.63694 53.8974 3.15158 2.80167 121.182 24.9323 -64.4948 5.04413e-007 1.06294e-007 -4.97288e-006 -151.905 66.374 129.577 7.61644e-007 8.30136e-006 -3 8.02887 -4.95145 0.697702 -48.3008 -1.37334 -0.393967 -119.173 27.6774 36.5137 1.5918e-006 2.45892e-006 4.98386e-006 166.531 76.2136 -154.87 5.40276e-006 -6.45906e-006 3 -8.02898 -4.95146 -0.697696 178.033 -4.99877 0.00514254 180 7.01523e-015 178.822 177.124 5.61217 179.747 2.55378e-006 -1.84189e-007 0.0437894 -18.3979 67.5892 19.2181 8.13649 25.2326 -3.48773 -170.645 -4.34213 -2.71931 4.54188e-006 -4.6773e-006 -1.02208 -1.40501 -10.8498 0.586414 1.26356e-006 7.58204e-007 -0.0688971 18.3017 70.541 -21.7207 -8.13656 25.2336 3.48643 
55.1341 85.6687 5.82985 -3.32055 -7.46159 -1.51303 0.261557 -0.704297 -0.154788 0.527058 2.5934 -0.343045 0.531742 4.23844 -0.352789 1.12116 10.3331 1.29218 -5.06828 9.94512 1.63254 53.9095 2.98332 2.68628 121.179 24.9747 -64.6843 5.04413e-007 1.06294e-007 -4.97288e-006 -151.706 66.4718 129.414 7.61644e-007 8.30136e-006 -3 8.02887 -4.95145 0.697702 -48.2807 -1.37961 -0.391932 -119.147 27.5906 36.4909 1.5918e-006 2.45892e-006 4.98386e-006 166.507 76.2681 -154.855 5.40276e-006 -6.45906e-006 3 -8.02898 -4.95146 -0.697696 178.04 -4.96583 -0.00212638 180 7.01523e-015 178.822 177.125 5.61285 179.747 2.55378e-006 -1.84189e-007 0.0437847 -18.3971 67.5882 19.2173 8.13649 25.2326 -3.48773 -170.643 -4.30062 -2.71381 4.54188e-006 -4.6773e-006 -1.02252 -1.40133 -10.8353 0.586881 1.26356e-006 7.58204e-007 -0.0688637 18.2964 70.5198 -21.701 -8.13656 25.2336 3.48643 
55.1446 85.6672 5.82438 -3.32515 -7.42783 -1.50526 0.261184 -0.71447 -0.152426 0.525778 2.57307 -0.338622 0.530407 4.2181 -0.348317 1.17943 10.4418 1.27621 -5.11736 9.78845 1.62773 53.9225 2.81597 2.57128 121.175 25.0231 -64.8767 5.04413e-007 1.06294e-007 -4.97288e-006 -151.498 66.5764 129.247 7.61644e-007 8.30136e-006 -3 8.02887 -4.95145 0.697702 -48.259 -1.37988 -0.394688 -119.124 27.5032 36.4544 1.5918e-006 2.45892e-006 4.98386e-006 166.49 76.3225 -154.85 5.40276e-006 -6.45906e-006 3 -8.02898 -4.95146 -0.697696 178.047 -4.93139 -0.00952996 180 7.01523e-015 178.822 177.125 5.61356 179.747 2.55378e-006 -1.84189e-007 0.0437799 -18.3962 67.5872 19.2164 8.13649 25.2326 -3.48773 -170.641 -4.25759 -2.70776 4.54188e-006 -4.6773e-006 -1.02301 -1.39755 -10.8193 0.587325 1.26356e-006 7.58204e-007 -0.0688303 18.2908 70.4972 -21.6802 -8.13656 25.2336 3.48643 
55.1521 85.6757 5.87355 -3.32941 -7.39331 -1.49721 0.260665 -0.725042 -0.150064 0.524187 2.55194 -0.334179 0.52876 4.19697 -0.343807 1.23983 10.5535 1.25928 -5.16806 9.63272 1.62268 53.9357 2.65159 2.45816 121.168 25.0746 -65.0687 5.04413e-007 1.06294e-007 -4.97288e-006 -151.286 66.6845 129.079 7.61644e-007 8.30136e-006 -3 8.02887 -4.95145 0.697702 -48.2368 -1.37519 -0.401298 -119.101 27.4154 36.4053 1.5918e-006 2.45892e-006 4.98386e-006 166.479 76.3763 -154.855 5.40276e-006 -6.45906e-006 3 -8.02898 -4.95146 -0.697696 178.053 -4.8961 -0.0169225 180 7.01523e-015 178.822 177.126 5.61437 179.747 2.55378e-006 -1.84189e-007 0.0437752 -18.3953 67.5861 19.2154 8.13649 25.2326 -3.48773 -170.641 -4.21383 -2.70136 4.54188e-006 -4.6773e-006 -1.02355 -1.39378 -10.8025 0.587734 1.26356e-006 7.58204e-007 -0.0687968 18.2852 70.4738 -21.6588 -8.13656 25.2336 3.48643 
55.1599 85.6658 5.85767 -3.33326 -7.35865 -1.48906 0.260016 -0.735813 -0.147752 0.522332 2.53041 -0.329806 0.526849 4.17544 -0.339355 1.30105 10.6664 1.24187 -5.21926 9.48014 1.61758 53.9484 2.49224 2.34844 121.158 25.1267 -65.2568 5.04413e-007 1.06294e-007 -4.97288e-006 -151.075 66.793 128.911 7.61644e-007 8.30136e-006 -3 8.02887 -4.95145 0.697702 -48.2153 -1.36656 -0.410828 -119.077 27.3275 36.3448 1.5918e-006 2.45892e-006 4.98386e-006 166.472 76.429 -154.867 5.40276e-006 -6.45906e-006 3 -8.02898 -4.95146 -0.697696 178.059 -4.86061 -0.0241585 180 7.01523e-015 178.822 177.127 5.61521 179.747 2.55378e-006 -1.84189e-007 0.0437705 -18.3943 67.585 19.2145 8.13649 25.2326 -3.48773 -170.64 -4.17016 -2.69476 4.54188e-006 -4.6773e-006 -1.02411 -1.39012 -10.7854 0.588095 1.26356e-006 7.58204e-007 -0.0687633 18.2797 70.4504 -21.6374 -8.13656 25.2336 3.48643 
55.1474 85.6705 5.85752 -3.33664 -7.32452 -1.48095 0.259253 -0.746586 -0.145541 0.520262 2.50887 -0.325595 0.524725 4.15391 -0.335056 1.36175 10.7788 1.22446 -5.26983 9.33293 1.61259 53.96 2.33998 2.24362 121.142 25.1768 -65.4377 5.04413e-007 1.06294e-007 -4.97288e-006 -150.867 66.8986 128.747 7.61644e-007 8.30136e-006 -3 8.02887 -4.95145 0.697702 -48.1955 -1.35502 -0.422343 -119.05 27.2396 36.274 1.5918e-006 2.45892e-006 4.98386e-006 166.47 76.4802 -154.885 5.40276e-006 -6.45906e-006 3 -8.02898 -4.95146 -0.697696 178.064 -4.82556 -0.0310923 180 7.01523e-015 178.823 177.127 5.61606 179.747 2.55378e-006 -1.84189e-007 0.0437658 -18.3934 67.584 19.2136 8.13649 25.2326 -3.48773 -170.641 -4.12736 -2.68812 4.54188e-006 -4.6773e-006 -1.02468 -1.38668 -10.7683 0.588397 1.26356e-006 7.58204e-007 -0.0687297 18.2744 70.4274 -21.6165 -8.13656 25.2336 3.48643 
55.1557 85.6654 5.86179 -3.33947 -7.29155 -1.47305 0.258392 -0.757161 -0.143481 0.518025 2.48773 -0.321638 0.522435 4.13277 -0.331007 1.42058 10.8889 1.20754 -5.31866 9.1933 1.60787 53.97 2.19687 2.14522 121.119 25.2225 -65.6078 5.04413e-007 1.06294e-007 -4.97288e-006 -150.668 66.9981 128.588 7.61644e-007 8.30136e-006 -3 8.02887 -4.95145 0.697702 -48.1785 -1.34158 -0.434908 -119.02 27.152 36.1941 1.5918e-006 2.45892e-006 4.98386e-006 166.471 76.5295 -154.908 5.40276e-006 -6.45906e-006 3 -8.02898 -4.95146 -0.697696 178.069 -4.79161 -0.0375784 180 7.01523e-015 178.823 177.128 5.61692 179.746 2.55378e-006 -1.84189e-007 0.0437611 -18.3926 67.583 19.2127 8.13649 25.2326 -3.48773 -170.641 -4.08625 -2.68163 4.54188e-006 -4.6773e-006 -1.02525 -1.38357 -10.7519 0.588628 1.26356e-006 7.58204e-007 -0.0686961 18.2696 70.4054 -21.5967 -8.13656 25.2336 3.48643 
55.1581 85.6672 5.8432 -3.34168 -7.2604 -1.46551 0.25745 -0.76734 -0.141625 0.515667 2.46739 -0.318025 0.52003 4.11243 -0.327305 1.47622 10.9949 1.19159 -5.36461 9.06345 1.60362 53.9777 2.06497 2.05473 121.086 25.2615 -65.7636 5.04413e-007 1.06294e-007 -4.97288e-006 -150.482 67.0882 128.437 7.61644e-007 8.30136e-006 -3 8.02887 -4.95145 0.697702 -48.1655 -1.32728 -0.447588 -118.984 27.065 36.1063 1.5918e-006 2.45892e-006 4.98386e-006 166.475 76.5763 -154.933 5.40276e-006 -6.45906e-006 3 -8.02898 -4.95146 -0.697696 178.073 -4.75941 -0.0434713 180 7.01523e-015 178.823 177.129 5.61777 179.746 2.55378e-006 -1.84189e-007 0.0437564 -18.3918 67.5821 19.212 8.13649 25.2326 -3.48773 -170.642 -4.04763 -2.67544 4.54188e-006 -4.6773e-006 -1.02581 -1.3809 -10.7366 0.588775 1.26356e-006 7.58204e-007 -0.0686624 18.2652 70.3852 -21.5783 -8.13656 25.2336 3.48643 
55.1609 85.6663 5.84851 -3.3432 -7.2317 -1.45849 0.256441 -0.776924 -0.140021 0.513236 2.44823 -0.314848 0.517557 4.09327 -0.324045 1.52731 11.0952 1.17708 -5.40656 8.94562 1.59998 53.9827 1.94636 1.97367 121.042 25.2914 -65.9015 5.04413e-007 1.06294e-007 -4.97288e-006 -150.315 67.1658 128.297 7.61644e-007 8.30136e-006 -3 8.02887 -4.95145 0.697702 -48.1577 -1.31313 -0.459448 -118.942 26.9789 36.0116 1.5918e-006 2.45892e-006 4.98386e-006 166.48 76.6202 -154.959 5.40276e-006 -6.45906e-006 3 -8.02898 -4.95146 -0.697696 178.076 -4.72959 -0.0486257 180 7.01523e-015 178.823 177.129 5.6186 179.746 2.55378e-006 -1.84189e-007 0.0437517 -18.3911 67.5813 19.2113 8.13649 25.2326 -3.48773 -170.644 -4.01229 -2.66973 4.54188e-006 -4.6773e-006 -1.02635 -1.37877 -10.723 0.588826 1.26356e-006 7.58204e-007 -0.0686286 18.2614 70.3671 -21.562 -8.13656 25.2336 3.48643 
55.1631 85.6669 5.84114 -3.34395 -7.20611 -1.45215 0.255381 -0.785715 -0.138722 0.51078 2.43066 -0.312198 0.515065 4.0757 -0.321323 1.57251 11.1881 1.16452 -5.44337 8.842 1.59712 53.9843 1.84309 1.90353 120.984 25.31 -66.018 5.04413e-007 1.06294e-007 -4.97288e-006 -150.169 67.2277 128.17 7.61644e-007 8.30136e-006 -3 8.02887 -4.95145 0.697702 -48.156 -1.30017 -0.469554 -118.89 26.8938 35.9112 1.5918e-006 2.45892e-006 4.98386e-006 166.486 76.6608 -154.985 5.40276e-006 -6.45906e-006 3 -8.02898 -4.95146 -0.697696 178.078 -4.70281 -0.0528962 180 7.01523e-015 178.823 177.13 5.61938 179.746 2.55378e-006 -1.84189e-007 0.043747 -18.3906 67.5806 19.2107 8.13649 25.2326 -3.48773 -170.646 -3.98103 -2.66466 4.54188e-006 -4.6773e-006 -1.02684 -1.37729 -10.7115 0.58877 1.26356e-006 7.58204e-007 -0.0685947 18.2585 70.3519 -21.5483 -8.13656 25.2336 3.48643 
55.1547 85.6652 5.8434 -3.34387 -7.18427 -1.44664 0.254286 -0.793514 -0.137779 0.508345 2.41507 -0.310166 0.512603 4.06011 -0.319235 1.61044 11.2716 1.15438 -5.47393 8.75482 1.59523 53.9821 1.75722 1.84582 120.912 25.3149 -66.1095 5.04413e-007 1.06294e-007 -4.97288e-006 -150.052 67.2706 128.059 7.61644e-007 8.30136e-006 -3 8.02887 -4.95145 0.697702 -48.1616 -1.28941 -0.476971 -118.829 26.81 35.8063 1.5918e-006 2.45892e-006 4.98386e-006 166.491 76.6976 -155.008 5.40276e-006 -6.45906e-006 3 -8.02898 -4.95146 -0.697696 178.079 -4.67971 -0.0561374 180 7.01523e-015 178.824 177.13 5.62008 179.746 2.55378e-006 -1.84189e-007 0.0437423 -18.3901 67.5802 19.2104 8.13649 25.2326 -3.48773 -170.648 -3.95467 -2.6604 4.54188e-006 -4.6773e-006 -1.02728 -1.37657 -10.7026 0.588593 1.26356e-006 7.58204e-007 -0.0685608 18.2564 70.3402 -21.5377 -8.13656 25.2336 3.48643 
